<mxfile host="Electron" modified="2023-12-19T19:56:55.704Z" agent="Mozilla/5.0 (X11; Linux x86_64) AppleWebKit/537.36 (KHTML, like Gecko) draw.io/21.6.8 Chrome/114.0.5735.289 Electron/25.5.0 Safari/537.36" etag="OBZNrslEeqwVd6pTSXmG" version="21.6.8" type="device">
  <diagram name="Страница — 1" id="eH0B66FrLYCeLPpcuGLJ">
    <mxGraphModel dx="878" dy="1676" grid="1" gridSize="10" guides="1" tooltips="1" connect="1" arrows="1" fold="1" page="1" pageScale="1" pageWidth="827" pageHeight="583" math="0" shadow="0">
      <root>
        <mxCell id="0" />
        <mxCell id="1" parent="0" />
        <mxCell id="LFXKyJjB-0gA13-Qk9Hq-1" value="&lt;font style=&quot;font-size: 22px;&quot;&gt;&lt;font face=&quot;Times New Roman&quot;&gt;Сгенерировать изображение&lt;br&gt;статической сцены расстановки шахматных фигур&lt;br&gt;на шахатной доске&lt;/font&gt;&lt;br&gt;&lt;/font&gt;" style="rounded=0;whiteSpace=wrap;html=1;" vertex="1" parent="1">
          <mxGeometry x="229" y="160" width="370" height="170" as="geometry" />
        </mxCell>
        <mxCell id="LFXKyJjB-0gA13-Qk9Hq-3" value="" style="endArrow=classic;html=1;rounded=0;entryX=-0.002;entryY=0.08;entryDx=0;entryDy=0;entryPerimeter=0;endSize=14;" edge="1" parent="1">
          <mxGeometry width="50" height="50" relative="1" as="geometry">
            <mxPoint x="20.74" y="195.22" as="sourcePoint" />
            <mxPoint x="229.00000000000006" y="194.82000000000014" as="targetPoint" />
          </mxGeometry>
        </mxCell>
        <mxCell id="LFXKyJjB-0gA13-Qk9Hq-7" value="Наблюдатель" style="edgeLabel;html=1;align=center;verticalAlign=middle;resizable=0;points=[];fontSize=17;fontFamily=Times New Roman;" vertex="1" connectable="0" parent="LFXKyJjB-0gA13-Qk9Hq-3">
          <mxGeometry x="0.1172" y="3" relative="1" as="geometry">
            <mxPoint x="-17" y="-12" as="offset" />
          </mxGeometry>
        </mxCell>
        <mxCell id="LFXKyJjB-0gA13-Qk9Hq-4" value="" style="endArrow=classic;html=1;rounded=0;exitX=1;exitY=0.5;exitDx=0;exitDy=0;endSize=14;" edge="1" parent="1" source="LFXKyJjB-0gA13-Qk9Hq-1">
          <mxGeometry width="50" height="50" relative="1" as="geometry">
            <mxPoint x="640" y="300" as="sourcePoint" />
            <mxPoint x="800.8695652173913" y="245" as="targetPoint" />
          </mxGeometry>
        </mxCell>
        <mxCell id="LFXKyJjB-0gA13-Qk9Hq-5" value="&lt;font face=&quot;Times New Roman&quot; style=&quot;font-size: 22px;&quot;&gt;Кадр сцены&lt;/font&gt;" style="edgeLabel;html=1;align=center;verticalAlign=middle;resizable=0;points=[];" vertex="1" connectable="0" parent="LFXKyJjB-0gA13-Qk9Hq-4">
          <mxGeometry x="-0.0926" y="-2" relative="1" as="geometry">
            <mxPoint x="-5" y="-27" as="offset" />
          </mxGeometry>
        </mxCell>
        <mxCell id="LFXKyJjB-0gA13-Qk9Hq-8" value="" style="endArrow=classic;html=1;rounded=0;entryX=0.001;entryY=0.153;entryDx=0;entryDy=0;entryPerimeter=0;fontSize=22;endSize=14;" edge="1" parent="1">
          <mxGeometry width="50" height="50" relative="1" as="geometry">
            <mxPoint x="20.725283018867923" y="230.57000000000002" as="sourcePoint" />
            <mxPoint x="229.00000000000006" y="230.0000000000001" as="targetPoint" />
            <Array as="points">
              <mxPoint x="151.48" y="230.57000000000002" />
            </Array>
          </mxGeometry>
        </mxCell>
        <mxCell id="LFXKyJjB-0gA13-Qk9Hq-9" value="Точечный источник света" style="edgeLabel;html=1;align=center;verticalAlign=middle;resizable=0;points=[];fontSize=16;fontFamily=Times New Roman;" vertex="1" connectable="0" parent="LFXKyJjB-0gA13-Qk9Hq-8">
          <mxGeometry x="0.2908" relative="1" as="geometry">
            <mxPoint x="-35" y="-20" as="offset" />
          </mxGeometry>
        </mxCell>
        <mxCell id="LFXKyJjB-0gA13-Qk9Hq-10" value="" style="endArrow=classic;html=1;rounded=0;entryX=0.001;entryY=0.153;entryDx=0;entryDy=0;entryPerimeter=0;fontSize=22;endSize=14;" edge="1" parent="1">
          <mxGeometry width="50" height="50" relative="1" as="geometry">
            <mxPoint x="20.725283018867923" y="263.00000000000006" as="sourcePoint" />
            <mxPoint x="229.00000000000006" y="262.4300000000001" as="targetPoint" />
            <Array as="points">
              <mxPoint x="151.48" y="263.00000000000006" />
            </Array>
          </mxGeometry>
        </mxCell>
        <mxCell id="LFXKyJjB-0gA13-Qk9Hq-13" value="Шахматная фигура" style="edgeLabel;html=1;align=center;verticalAlign=middle;resizable=0;points=[];fontFamily=Times New Roman;fontSize=16;" vertex="1" connectable="0" parent="LFXKyJjB-0gA13-Qk9Hq-10">
          <mxGeometry x="0.0528" y="1" relative="1" as="geometry">
            <mxPoint x="-1" y="-12" as="offset" />
          </mxGeometry>
        </mxCell>
        <mxCell id="LFXKyJjB-0gA13-Qk9Hq-16" value="" style="endArrow=classic;html=1;rounded=0;entryX=0.001;entryY=0.153;entryDx=0;entryDy=0;entryPerimeter=0;fontSize=22;endSize=14;" edge="1" parent="1">
          <mxGeometry width="50" height="50" relative="1" as="geometry">
            <mxPoint x="20.725283018867923" y="298.00000000000006" as="sourcePoint" />
            <mxPoint x="229.00000000000006" y="297.4300000000001" as="targetPoint" />
            <Array as="points">
              <mxPoint x="151.48" y="298.00000000000006" />
            </Array>
          </mxGeometry>
        </mxCell>
        <mxCell id="LFXKyJjB-0gA13-Qk9Hq-17" value="Шахматная доска" style="edgeLabel;html=1;align=center;verticalAlign=middle;resizable=0;points=[];fontFamily=Times New Roman;fontSize=16;" vertex="1" connectable="0" parent="LFXKyJjB-0gA13-Qk9Hq-16">
          <mxGeometry x="0.0528" y="1" relative="1" as="geometry">
            <mxPoint x="-1" y="-12" as="offset" />
          </mxGeometry>
        </mxCell>
        <mxCell id="LFXKyJjB-0gA13-Qk9Hq-18" value="0" style="text;html=1;strokeColor=none;fillColor=none;align=center;verticalAlign=middle;whiteSpace=wrap;rounded=0;" vertex="1" parent="1">
          <mxGeometry x="550" y="300" width="60" height="30" as="geometry" />
        </mxCell>
      </root>
    </mxGraphModel>
  </diagram>
</mxfile>
